<svg id="svg" xmlns="http://www.w3.org/2000/svg" xmlns:xlink="http://www.w3.org/1999/xlink" width="400" height="262.27272727272725" viewBox="0, 0, 400,262.27272727272725"><g id="svgg"><path id="path0" d="M63.636 0.711 C 63.636 2.498,186.050 262.342,186.796 262.139 C 188.025 261.805,351.426 162.789,353.904 160.878 C 375.557 144.172,393.631 110.753,398.872 77.727 C 399.561 73.391,399.996 1.208,399.338 0.550 C 398.561 -0.227,63.636 -0.067,63.636 0.711 M6.194 13.295 C 9.562 20.358,32.309 68.163,56.742 119.529 L 101.167 212.923 127.429 228.100 C 141.874 236.448,153.808 243.161,153.950 243.020 C 154.092 242.878,132.263 196.987,105.441 141.040 C 78.620 85.093,52.485 30.574,47.365 19.886 L 38.056 0.455 19.064 0.455 L 0.071 0.455 6.194 13.295 M366.364 46.707 C 366.364 81.830,358.887 106.802,342.548 126.253 C 335.490 134.655,336.394 134.045,287.153 163.643 L 241.805 190.901 241.925 176.945 L 242.045 162.988 272.500 144.483 C 306.842 123.616,308.577 122.327,316.300 111.963 C 326.125 98.777,333.971 78.450,335.276 62.799 L 335.585 59.091 318.996 59.091 L 302.407 59.091 302.134 62.637 C 301.137 75.570,294.934 89.826,287.125 97.130 C 285.106 99.019,280.283 102.220,271.315 107.623 C 264.217 111.899,253.500 118.363,247.500 121.987 C 241.500 125.612,236.467 128.437,236.316 128.266 C 236.165 128.095,229.855 112.461,222.294 93.525 L 208.546 59.096 168.489 58.980 L 128.433 58.864 122.398 45.724 C 119.079 38.497,116.364 32.514,116.364 32.428 C 116.364 32.343,172.614 32.273,241.364 32.273 L 366.364 32.273 366.364 46.707 M207.839 152.614 C 207.775 186.551,207.673 217.969,207.611 222.431 L 207.500 230.544 176.136 161.141 C 158.886 122.969,144.705 91.551,144.621 91.323 C 144.531 91.077,157.297 90.909,176.212 90.909 L 207.955 90.909 207.839 152.614 " stroke="none" fill="#000000" fill-rule="evenodd"></path></g></svg>